<svg xmlns="http://www.w3.org/2000/svg" viewBox="0 0 1920 911" preserveAspectRatio="xMidYMid" width="1920" height="911" xmlns:xlink="http://www.w3.org/1999/xlink" style="shape-rendering:auto;display:block;background-position-x:0%;background-position-y:0%;background-size:auto;background-origin:padding-box;background-clip:border-box;background:scroll rgb(255, 255, 255) none  repeat;width:1920px;height:911px;;animation:none"><g><defs><filter id="blur-gisc981ghg-1" x="-1" y="-1" width="3" height="3"><feGaussianBlur stdDeviation="3"></feGaussianBlur></filter>
<filter id="blur-gisc981ghg-2" x="-1" y="-1" width="3" height="3"><feGaussianBlur stdDeviation="1.5"></feGaussianBlur></filter>
<filter id="blur-gisc981ghg-3" x="-1" y="-1" width="3" height="3"><feGaussianBlur stdDeviation="1"></feGaussianBlur></filter></defs>
<circle cx="623.0783294392622" cy="0" transform="matrix(1,0,0,1,38.160057067871094,588.9876098632812)" r="12" fill="#ff0000" opacity="0.7200000000000001" style="fill:rgb(255, 0, 0);transform:matrix(1, 0, 0, 1, 38.1601, 588.988);opacity:0.72;;animation:none"></circle>
<circle cx="1236.2133429858616" cy="0" transform="matrix(1,0,0,1,60.30912780761719,232.1288299560547)" r="4" fill="#fbb034" opacity="0.36000000000000004" style="fill:rgb(251, 176, 52);transform:matrix(1, 0, 0, 1, 60.3091, 232.129);opacity:0.36;;animation:none"></circle>
<circle cx="583.6891116761077" cy="0" transform="matrix(1,0,0,1,-66.53374481201172,590.5888671875)" r="4" fill="#ffdd00" opacity="0.36000000000000004" style="fill:rgb(255, 221, 0);transform:matrix(1, 0, 0, 1, -66.5337, 590.589);opacity:0.36;;animation:none"></circle>
<circle cx="1492.481925809165" cy="0" transform="matrix(1,0,0,1,-59.219024658203125,472.5530700683594)" r="4" fill="#c1d82f" opacity="0.36000000000000004" style="fill:rgb(193, 216, 47);transform:matrix(1, 0, 0, 1, -59.219, 472.553);opacity:0.36;;animation:none"></circle>
<circle cx="511.21085874096536" cy="0" transform="matrix(1,0,0,1,-79.6204833984375,215.46495056152344)" r="8" fill="#00a4e4" opacity="0.63" style="fill:rgb(0, 164, 228);transform:matrix(1, 0, 0, 1, -79.6205, 215.465);opacity:0.63;;animation:none"></circle>
<circle cx="666.4882239732726" cy="0" transform="matrix(1,0,0,1,-38.488555908203125,473.7410583496094)" r="4" fill="#c275da" opacity="0.36000000000000004" style="fill:rgb(194, 117, 218);transform:matrix(1, 0, 0, 1, -38.4886, 473.741);opacity:0.36;;animation:none"></circle>
<circle cx="1398.8517208746875" cy="0" transform="matrix(1,0,0,1,101.80121612548828,147.2025604248047)" r="4" fill="#ff0000" opacity="0.36000000000000004" style="fill:rgb(255, 0, 0);transform:matrix(1, 0, 0, 1, 101.801, 147.203);opacity:0.36;;animation:none"></circle>
<circle cx="1427.3551275187806" cy="0" transform="matrix(1,0,0,1,32.33066177368164,302.11431884765625)" r="4" fill="#fbb034" opacity="0.36000000000000004" style="fill:rgb(251, 176, 52);transform:matrix(1, 0, 0, 1, 32.3307, 302.114);opacity:0.36;;animation:none"></circle>
<circle cx="1798.255023336489" cy="0" transform="matrix(1,0,0,1,-13.312667846679688,867.135986328125)" r="4" fill="#ffdd00" opacity="0.36000000000000004" style="fill:rgb(255, 221, 0);transform:matrix(1, 0, 0, 1, -13.3127, 867.136);opacity:0.36;;animation:none"></circle>
<circle cx="668.7784366254327" cy="0" transform="matrix(1,0,0,1,-13.033151626586914,435.5737609863281)" r="8" fill="#c1d82f" opacity="0.63" style="fill:rgb(193, 216, 47);transform:matrix(1, 0, 0, 1, -13.0332, 435.574);opacity:0.63;;animation:none"></circle>
<circle cx="2.744940448032308" cy="0" transform="matrix(1,0,0,1,-115.40066528320312,164.24937438964844)" r="4" fill="#00a4e4" opacity="0.36000000000000004" style="fill:rgb(0, 164, 228);transform:matrix(1, 0, 0, 1, -115.401, 164.249);opacity:0.36;;animation:none"></circle>
<circle cx="1703.6432209479588" cy="0" transform="matrix(1,0,0,1,101.45893859863281,226.0094757080078)" r="12" fill="#c275da" opacity="0.7200000000000001" style="fill:rgb(194, 117, 218);transform:matrix(1, 0, 0, 1, 101.459, 226.009);opacity:0.72;;animation:none"></circle>
<circle cx="1464.7705605270005" cy="0" transform="matrix(1,0,0,1,97.87678527832031,869.0999755859375)" r="12" fill="#ff0000" opacity="0.7200000000000001" style="fill:rgb(255, 0, 0);transform:matrix(1, 0, 0, 1, 97.8768, 869.1);opacity:0.72;;animation:none"></circle>
<circle cx="422.00936739273084" cy="0" transform="matrix(1,0,0,1,-84.76156616210938,892.6841430664062)" r="12" fill="#fbb034" opacity="0.7200000000000001" style="fill:rgb(251, 176, 52);transform:matrix(1, 0, 0, 1, -84.7616, 892.684);opacity:0.72;;animation:none"></circle>
<circle cx="420.80597175495006" cy="0" transform="matrix(1,0,0,1,60.06605529785156,795.16357421875)" r="4" fill="#ffdd00" opacity="0.36000000000000004" style="fill:rgb(255, 221, 0);transform:matrix(1, 0, 0, 1, 60.0661, 795.164);opacity:0.36;;animation:none"></circle>
<circle cx="1612.9640391463709" cy="0" transform="matrix(1,0,0,1,-25.13459014892578,573.8165893554688)" r="4" fill="#c1d82f" opacity="0.36000000000000004" style="fill:rgb(193, 216, 47);transform:matrix(1, 0, 0, 1, -25.1346, 573.817);opacity:0.36;;animation:none"></circle>
<circle cx="224.5401384888385" cy="0" transform="matrix(1,0,0,1,-14.409805297851562,776.4774780273438)" r="8" fill="#00a4e4" opacity="0.63" style="fill:rgb(0, 164, 228);transform:matrix(1, 0, 0, 1, -14.4098, 776.477);opacity:0.63;;animation:none"></circle>
<circle cx="160.61615493269392" cy="0" transform="matrix(1,0,0,1,106.24159240722656,8.453641891479492)" r="12" fill="#c275da" opacity="0.7200000000000001" style="fill:rgb(194, 117, 218);transform:matrix(1, 0, 0, 1, 106.242, 8.45364);opacity:0.72;;animation:none"></circle>
<circle cx="1381.4607046910592" cy="0" transform="matrix(1,0,0,1,-87.63172149658203,311.738525390625)" r="12" fill="#ff0000" opacity="0.7200000000000001" style="fill:rgb(255, 0, 0);transform:matrix(1, 0, 0, 1, -87.6317, 311.739);opacity:0.72;;animation:none"></circle>
<circle cx="583.2666637165589" cy="0" transform="matrix(1,0,0,1,34.181190490722656,427.37213134765625)" r="8" fill="#fbb034" opacity="0.63" style="fill:rgb(251, 176, 52);transform:matrix(1, 0, 0, 1, 34.1812, 427.372);opacity:0.63;;animation:none"></circle>
<circle cx="1430.5787917346152" cy="0" transform="matrix(1,0,0,1,-13.225349426269531,734.0376586914062)" r="12" fill="#ffdd00" opacity="0.7200000000000001" style="fill:rgb(255, 221, 0);transform:matrix(1, 0, 0, 1, -13.2253, 734.038);opacity:0.72;;animation:none"></circle>
<circle cx="471.6301414766082" cy="0" transform="matrix(1,0,0,1,-88.20423889160156,772.8804321289062)" r="12" fill="#c1d82f" opacity="0.7200000000000001" style="fill:rgb(193, 216, 47);transform:matrix(1, 0, 0, 1, -88.2042, 772.88);opacity:0.72;;animation:none"></circle>
<circle cx="825.6489482942729" cy="0" transform="matrix(1,0,0,1,137.99176025390625,272.670654296875)" r="12" fill="#00a4e4" opacity="0.7200000000000001" style="fill:rgb(0, 164, 228);transform:matrix(1, 0, 0, 1, 137.992, 272.671);opacity:0.72;;animation:none"></circle>
<circle cx="1233.1022533638416" cy="0" transform="matrix(1,0,0,1,132.53378295898438,577.5735473632812)" r="4" fill="#c275da" opacity="0.36000000000000004" style="fill:rgb(194, 117, 218);transform:matrix(1, 0, 0, 1, 132.534, 577.574);opacity:0.36;;animation:none"></circle>
<circle cx="29.740008689555594" cy="0" transform="matrix(1,0,0,1,-41.144020080566406,881.9678344726562)" r="4" fill="#ff0000" opacity="0.36000000000000004" style="fill:rgb(255, 0, 0);transform:matrix(1, 0, 0, 1, -41.144, 881.968);opacity:0.36;;animation:none"></circle>
<circle cx="437.2837524356576" cy="0" transform="matrix(1,0,0,1,-8.218339920043945,22.43614959716797)" r="12" fill="#fbb034" opacity="0.7200000000000001" style="fill:rgb(251, 176, 52);transform:matrix(1, 0, 0, 1, -8.21834, 22.4361);opacity:0.72;;animation:none"></circle>
<circle cx="1701.5735888510817" cy="0" transform="matrix(1,0,0,1,-69.06233978271484,877.0427856445312)" r="4" fill="#ffdd00" opacity="0.36000000000000004" style="fill:rgb(255, 221, 0);transform:matrix(1, 0, 0, 1, -69.0623, 877.043);opacity:0.36;;animation:none"></circle>
<circle cx="1830.0507736194345" cy="0" transform="matrix(1,0,0,1,-25.077476501464844,740.1351318359375)" r="4" fill="#c1d82f" opacity="0.36000000000000004" style="fill:rgb(193, 216, 47);transform:matrix(1, 0, 0, 1, -25.0775, 740.135);opacity:0.36;;animation:none"></circle>
<circle cx="1672.3917699076042" cy="0" transform="matrix(1,0,0,1,-79.40355682373047,236.2318572998047)" r="12" fill="#00a4e4" opacity="0.7200000000000001" style="fill:rgb(0, 164, 228);transform:matrix(1, 0, 0, 1, -79.4036, 236.232);opacity:0.72;;animation:none"></circle>
<circle cx="1596.7369796984374" cy="0" transform="matrix(1,0,0,1,80.15607452392578,-1.5973758697509766)" r="12" fill="#c275da" opacity="0.7200000000000001" style="fill:rgb(194, 117, 218);transform:matrix(1, 0, 0, 1, 80.1561, -1.59738);opacity:0.72;;animation:none"></circle>
<g></g></g><!-- [ldio] generated by https://loading.io --></svg>